<svg width="24" height="24" viewBox="0 0 24 24" fill="none" xmlns="http://www.w3.org/2000/svg">
<path d="M12 0.75C18.2132 0.75 23.25 5.7868 23.25 12C23.25 18.2132 18.2132 23.25 12 23.25C5.7868 23.25 0.75 18.2132 0.75 12C0.75 5.7868 5.7868 0.75 12 0.75Z" stroke="#FAF9F7" stroke-width="1.5"/>
<path d="M8.30762 10.154C8.30762 11.1959 8.66249 12.0717 9.37222 12.7815C10.0822 13.4913 10.9581 13.8462 11.9999 13.8462C13.0418 13.8462 13.9177 13.4913 14.6276 12.7815C15.3374 12.0717 15.6922 11.1959 15.6922 10.154C15.6922 9.1119 15.3374 8.23597 14.6276 7.5262C13.9177 6.81643 13.0418 6.46155 11.9999 6.46155C10.9581 6.46155 10.0822 6.81643 9.37222 7.5262C8.66249 8.23597 8.30762 9.1119 8.30762 10.154Z" fill="#FAF9F7"/>
<path d="M12.0005 16.6154C15.3838 16.6155 18.4102 18.1347 20.4419 20.5255C18.2738 22.6725 15.2927 24 12.0005 24.0001C8.7078 24.0001 5.72535 22.6728 3.55713 20.5255C5.58894 18.1343 8.61678 16.6154 12.0005 16.6154Z" fill="#FAF9F7"/>
</svg>
