<svg width="90" height="90" viewBox="0 0 90 90" fill="none" xmlns="http://www.w3.org/2000/svg">
<path d="M45 14.9502C47.446 14.9502 49.9177 16.1681 51.2432 18.5938L77.2969 66.2588C79.5434 70.3608 76.4854 75.5497 71.8008 75.5498H18.1875C13.5147 75.5497 10.4567 70.3726 12.7031 66.2588L38.7686 18.5938C40.094 16.1681 42.542 14.9502 45 14.9502ZM44.9883 18.4189C43.7859 18.4189 42.593 19.061 41.9023 20.3262L15.8369 67.9912C14.8238 69.8563 16.0688 71.9745 18.1875 71.9746H71.8008C73.9195 71.9745 75.1645 69.8444 74.1514 67.9912L48.0977 20.3262C47.4071 19.0612 46.2026 18.4189 45 18.4189H44.9883ZM45 58.7354C45.475 58.7354 45.9386 58.9179 46.2803 59.2598C46.6219 59.6017 46.8047 60.0657 46.8047 60.541V62.9258C46.8046 63.4013 46.6215 63.8528 46.2803 64.1943L46.2793 64.1953C45.9385 64.5241 45.4757 64.7197 45 64.7197H44.999C44.5247 64.7076 44.0738 64.5242 43.7324 64.1826C43.3911 63.8411 43.2081 63.3896 43.208 62.9141V60.5293C43.208 60.0528 43.4031 59.6016 43.7314 59.2607L43.7324 59.2598C44.0737 58.9184 44.5248 58.7354 45 58.7354ZM45.0234 36.5635C45.4995 36.5635 45.9505 36.7594 46.291 37.0879L46.293 37.0889C46.6213 37.4296 46.8163 37.8811 46.8164 38.3574V53.3545C46.8164 53.8302 46.6334 54.2824 46.292 54.624H46.291C45.9502 54.9529 45.4875 55.1484 45.0117 55.1484H45.0107C44.5363 55.1363 44.0856 54.953 43.7441 54.6113V54.6123C43.4019 54.2819 43.2197 53.8178 43.2197 53.3428V38.3457C43.2198 37.3694 44.0121 36.5635 45 36.5635H45.0234Z" fill="#CDC7B9" stroke="#CDC7B9" stroke-width="0.1"/>
</svg>
