<svg width="24" height="24" viewBox="0 0 24 24" fill="none" xmlns="http://www.w3.org/2000/svg">
<path d="M12 0.75C18.2132 0.75 23.25 5.7868 23.25 12C23.25 18.2132 18.2132 23.25 12 23.25C5.7868 23.25 0.75 18.2132 0.75 12C0.75 5.7868 5.7868 0.75 12 0.75Z" stroke="#FAF9F7" stroke-width="1.5"/>
<path d="M16.8478 17.5385C15.6199 17.5385 14.3863 17.253 13.147 16.682C11.9078 16.111 10.7682 15.3055 9.72814 14.2656C8.69234 13.2255 7.88894 12.0869 7.31793 10.8496C6.74693 9.6125 6.46143 8.37997 6.46143 7.15206C6.46143 6.95659 6.52658 6.79261 6.6569 6.66012C6.78722 6.52774 6.95011 6.46155 7.14559 6.46155H9.27073C9.43525 6.46155 9.58039 6.51525 9.70615 6.62265C9.83191 6.72995 9.91189 6.86254 9.9461 7.02044L10.3196 8.93757C10.3455 9.11545 10.34 9.2683 10.3033 9.39612C10.2665 9.52394 10.2005 9.63129 10.1052 9.71816L8.60041 11.1831C8.84258 11.6266 9.11929 12.0462 9.43053 12.4418C9.74166 12.8373 10.0785 13.2151 10.4411 13.5751C10.7986 13.9327 11.1787 14.2648 11.5814 14.5713C11.9841 14.8779 12.4189 15.1632 12.8859 15.4272L14.348 13.9523C14.45 13.8462 14.5735 13.7718 14.7185 13.7292C14.8633 13.6866 15.0139 13.6762 15.1702 13.6979L16.9795 14.0663C17.144 14.1098 17.2783 14.1937 17.3823 14.3182C17.4863 14.4426 17.5383 14.5838 17.5383 14.7417V16.8543C17.5383 17.0498 17.4722 17.2127 17.3398 17.343C17.2073 17.4733 17.0433 17.5385 16.8478 17.5385Z" fill="#FAF9F7"/>
</svg>
